# xmcd
#
# Track frame offsets:
#	150
#	14733
#	31458
#	43574
#	60441
#	76867
#	92764
#	118430
#	139204
#	154054
#	174004
#	185029
#	203835
#	215969
#	228641
#
# Disc length: 3226 seconds
# Revision: 0
# Processed by: cddbd v1.5.2PL0 Copyright (c) Steve Scherf et al.
# Submitted via: dBpowerAMP V12.0
#
DISCID=d60c980f
DTITLE=Ganey Arsement - Le Forgeron
DYEAR=2014
DGENRE=Cajun
TTITLE0=Le Forgeron
TTITLE1=La Verité
TTITLE2=John Dale's Zydeco
TTITLE3=La Pistache a Tante Nana
TTITLE4=Petite ou la Grosse
TTITLE5=C'est Trop Tard
TTITLE6=Pipeliner Blues
TTITLE7=Quand les Temps après finir
TTITLE8=Bayou Anglais
TTITLE9=Here, in my Arms
TTITLE10=In the Pines
TTITLE11=A Small Town
TTITLE12=I'm Sorry
TTITLE13=Back to You
TTITLE14=Le Two-Step du Forgeron
EXTD=
EXTT0=
EXTT1=
EXTT2=
EXTT3=
EXTT4=
EXTT5=
EXTT6=
EXTT7=
EXTT8=
EXTT9=
EXTT10=
EXTT11=
EXTT12=
EXTT13=
EXTT14=
PLAYORDER=
